<?xml version="1.0" standalone="no"?>
<!DOCTYPE svg PUBLIC "-//W3C//DTD SVG 20010904//EN"
 "http://www.w3.org/TR/2001/REC-SVG-20010904/DTD/svg10.dtd">
<svg version="1.0" xmlns="http://www.w3.org/2000/svg"
 width="512.000000pt" height="512.000000pt" viewBox="0 0 512.000000 512.000000"
 preserveAspectRatio="xMidYMid meet">
<metadata>
Created by potrace 1.11, written by Peter Selinger 2001-2013
</metadata>
<g transform="translate(0.000000,512.000000) scale(0.100000,-0.100000)"
fill="#000000" stroke="none">
<path d="M4570 4939 c-63 -10 -135 -21 -160 -25 -25 -3 -54 -8 -65 -10 -11 -2
-60 -11 -109 -20 -70 -12 -265 -51 -446 -89 -8 -1 -33 -8 -55 -13 -22 -6 -51
-13 -65 -16 -123 -22 -681 -188 -795 -235 -11 -5 -42 -18 -70 -29 l-50 -21 -1
-88 c-1 -97 -20 -157 -79 -243 -64 -95 -195 -223 -212 -207 -3 4 0 35 7 69 17
84 21 229 8 275 -11 42 -22 53 -55 53 -27 0 -218 -88 -353 -163 -183 -101
-392 -232 -479 -298 -13 -10 -28 -16 -34 -12 -5 3 -7 2 -4 -4 4 -6 -15 -25
-41 -44 -26 -18 -49 -35 -52 -38 -3 -4 -30 -26 -60 -51 -149 -121 -365 -342
-460 -469 -14 -18 -33 -42 -42 -52 -10 -11 -18 -21 -18 -24 0 -3 -19 -33 -43
-68 -157 -227 -278 -507 -342 -792 -13 -60 -27 -132 -30 -160 -3 -27 -9 -81
-14 -118 -9 -77 -7 -364 3 -447 14 -113 53 -290 65 -290 3 0 21 29 40 65 52
102 193 340 202 343 5 2 9 8 9 14 0 16 250 380 280 408 3 3 21 25 40 50 19 25
39 50 45 56 5 7 24 29 40 50 17 21 39 48 50 59 11 12 32 37 46 56 15 19 41 50
59 69 17 19 53 59 78 89 26 29 65 73 87 96 22 24 76 83 120 131 183 200 456
465 660 639 38 33 86 75 105 92 19 18 41 31 47 28 7 -2 12 0 10 4 -1 5 9 19
23 31 35 31 312 238 385 287 206 140 506 326 625 388 30 16 67 38 83 48 15 10
27 15 27 11 0 -4 8 -1 18 8 15 13 68 38 227 109 28 12 63 21 79 21 51 -1 79
-46 60 -96 -4 -9 -106 -86 -228 -170 -576 -399 -689 -483 -950 -705 -189 -161
-305 -269 -566 -531 -266 -265 -377 -382 -565 -594 -33 -37 -72 -81 -87 -97
-15 -17 -42 -48 -60 -71 -18 -22 -38 -45 -43 -52 -35 -39 -159 -192 -226 -279
-44 -56 -85 -109 -92 -117 -35 -44 -134 -178 -207 -280 -45 -63 -86 -114 -92
-112 -5 1 -7 -2 -4 -7 5 -7 -280 -460 -313 -498 -6 -7 -11 -16 -11 -21 0 -5
-10 -20 -22 -34 -13 -13 -24 -31 -25 -39 -1 -8 -26 -84 -55 -169 -48 -138 -68
-207 -83 -293 -16 -84 79 -161 151 -124 52 27 204 190 357 382 44 55 83 102
86 105 3 3 19 24 35 47 16 24 33 40 39 36 5 -3 7 -1 4 4 -4 6 30 60 76 120 45
60 93 125 106 145 l25 36 140 -1 c130 -1 311 8 346 18 8 2 37 6 64 10 27 3 85
13 130 21 705 134 1478 573 1931 1099 33 39 62 72 65 75 14 13 73 93 124 169
56 82 62 102 39 137 -7 10 -117 48 -172 59 -9 2 -36 8 -61 14 -25 7 -56 14
-70 17 -14 2 -56 11 -95 19 -38 8 -86 17 -105 19 -19 3 -55 8 -80 11 -25 3
-54 8 -65 10 -11 2 -35 4 -52 4 -53 1 -38 23 35 55 37 16 81 34 97 41 191 82
428 114 665 90 128 -13 125 -15 165 85 15 38 31 70 35 70 4 0 7 6 7 13 0 7 23
72 51 144 51 127 60 166 44 189 -6 10 -134 74 -147 74 -3 0 -24 9 -48 20 -80
37 -366 117 -437 122 -17 1 -35 8 -41 14 -6 8 19 22 88 49 54 20 105 39 113
41 8 2 49 13 90 24 110 31 294 31 425 0 52 -12 58 -12 78 3 14 11 73 216 91
317 6 33 9 50 21 103 15 64 50 274 65 382 10 77 13 96 26 210 14 119 13 146
-7 166 -23 23 -47 23 -199 -2z"/>
</g>
</svg>
